<svg width="232" height="232" viewBox="0 0 232 232" fill="none" xmlns="http://www.w3.org/2000/svg">
<circle cx="116" cy="116" r="116" fill="#252742"/>
<path d="M58.2162 72.3087C57.9389 64.3443 64.1442 57 72.5318 57H158.479C166.866 57 173.072 64.3443 172.794 72.3087C172.528 79.9593 172.874 89.8697 175.368 97.9504C177.87 106.056 182.09 111.18 189 111.838V119.303C182.09 119.961 177.87 125.085 175.368 133.19C172.874 141.271 172.528 151.181 172.794 158.832C173.072 166.796 166.866 174.141 158.479 174.141H72.5318C64.1442 174.141 57.9389 166.796 58.2165 158.832C58.4827 151.181 58.1367 141.271 55.6423 133.19C53.1404 125.085 48.9107 119.961 42 119.303V111.838C48.9104 111.18 53.1404 106.056 55.6423 97.9504C58.1367 89.8697 58.4827 79.9593 58.2162 72.3087Z" fill="url(#paint0_linear_105_108)"/>
<g filter="url(#filter0_d_105_108)">
<path d="M118.688 146.709C132.267 146.709 140.45 140.06 140.45 129.094C140.45 120.804 134.611 114.803 125.942 113.853V113.507C132.311 112.471 137.31 106.556 137.31 99.9501C137.31 90.5378 129.879 84.4066 118.555 84.4066H93.077V146.709H118.688ZM102.985 92.3079H116.167C123.332 92.3079 127.402 95.5028 127.402 101.288C127.402 107.463 122.669 110.917 114.088 110.917H102.985V92.3079ZM102.985 138.808V118.3H116.078C125.455 118.3 130.321 121.754 130.321 128.489C130.321 135.225 125.588 138.808 116.653 138.808H102.985Z" fill="url(#paint1_linear_105_108)"/>
<path d="M118.688 146.709C132.267 146.709 140.45 140.06 140.45 129.094C140.45 120.804 134.611 114.803 125.942 113.853V113.507C132.311 112.471 137.31 106.556 137.31 99.9501C137.31 90.5378 129.879 84.4066 118.555 84.4066H93.077V146.709H118.688ZM102.985 92.3079H116.167C123.332 92.3079 127.402 95.5028 127.402 101.288C127.402 107.463 122.669 110.917 114.088 110.917H102.985V92.3079ZM102.985 138.808V118.3H116.078C125.455 118.3 130.321 121.754 130.321 128.489C130.321 135.225 125.588 138.808 116.653 138.808H102.985Z" stroke="white"/>
</g>
<defs>
<filter id="filter0_d_105_108" x="76.577" y="71.9066" width="80.373" height="95.3027" filterUnits="userSpaceOnUse" color-interpolation-filters="sRGB">
<feFlood flood-opacity="0" result="BackgroundImageFix"/>
<feColorMatrix in="SourceAlpha" type="matrix" values="0 0 0 0 0 0 0 0 0 0 0 0 0 0 0 0 0 0 127 0" result="hardAlpha"/>
<feOffset dy="4"/>
<feGaussianBlur stdDeviation="8"/>
<feColorMatrix type="matrix" values="0 0 0 0 0 0 0 0 0 0 0 0 0 0 0 0 0 0 0.15 0"/>
<feBlend mode="normal" in2="BackgroundImageFix" result="effect1_dropShadow_105_108"/>
<feBlend mode="normal" in="SourceGraphic" in2="effect1_dropShadow_105_108" result="shape"/>
</filter>
<linearGradient id="paint0_linear_105_108" x1="63.843" y1="60.1002" x2="192.296" y2="162.066" gradientUnits="userSpaceOnUse">
<stop stop-color="#9013FE"/>
<stop offset="1" stop-color="#6610F2"/>
</linearGradient>
<linearGradient id="paint1_linear_105_108" x1="97.558" y1="88.5074" x2="126.271" y2="137.067" gradientUnits="userSpaceOnUse">
<stop stop-color="white"/>
<stop offset="1" stop-color="#F1E5FC"/>
</linearGradient>
</defs>
</svg>
