<svg width="232" height="232" viewBox="0 0 232 232" fill="none" xmlns="http://www.w3.org/2000/svg">
<circle cx="116" cy="116" r="116" fill="#252742"/>
<path d="M182 45L169.985 179.596L115.978 194.568L62.1203 179.617L50.1183 45H182Z" fill="#264DE4"/>
<path d="M159.699 171.025L169.967 56.0067H116.059V183.124L159.699 171.025Z" fill="#2965F1"/>
<path d="M77.6327 105.934L79.1125 122.444H116.059V105.934H77.6327Z" fill="#EBEBEB"/>
<path d="M116.059 72.5173H116.002H74.6593L76.1602 89.0277H116.059V72.5173Z" fill="#EBEBEB"/>
<path d="M116.059 165.991V148.813L115.987 148.832L97.5993 143.867L96.4238 130.7H87.4889H79.8502L82.1633 156.623L115.983 166.012L116.059 165.991Z" fill="#EBEBEB"/>
<path d="M136.333 122.444L134.416 143.857L116.002 148.827V166.004L149.849 156.623L150.097 153.834L153.977 110.368L154.38 105.934L157.36 72.5173H116.002V89.0277H139.267L137.764 105.934H116.002V122.444H136.333Z" fill="white"/>
</svg>
