<svg width="232" height="232" viewBox="0 0 232 232" fill="none" xmlns="http://www.w3.org/2000/svg">
<circle cx="116" cy="116" r="116" fill="#252742"/>
<path d="M92.3575 189.102C105.644 189.102 116.428 178.251 116.428 164.881V140.659H92.3575C79.0705 140.659 68.2868 151.51 68.2868 164.881C68.2868 178.251 79.0705 189.102 92.3575 189.102Z" fill="#0ACF83"/>
<path d="M68.2868 116.438C68.2868 103.068 79.0705 92.2164 92.3575 92.2164H116.428V140.659H92.3575C79.0705 140.659 68.2868 129.808 68.2868 116.438Z" fill="#A259FF"/>
<path d="M68.2871 67.9949C68.2871 54.6247 79.0708 43.7736 92.3578 43.7736H116.428V92.2163H92.3578C79.0708 92.2163 68.2871 81.3651 68.2871 67.9949Z" fill="#F24E1E"/>
<path d="M116.428 43.7736H140.499C153.786 43.7736 164.569 54.6247 164.569 67.9949C164.569 81.3651 153.786 92.2163 140.499 92.2163H116.428V43.7736Z" fill="#FF7262"/>
<path d="M164.569 116.438C164.569 129.808 153.786 140.659 140.499 140.659C127.212 140.659 116.428 129.808 116.428 116.438C116.428 103.068 127.212 92.2164 140.499 92.2164C153.786 92.2164 164.569 103.068 164.569 116.438Z" fill="#1ABCFE"/>
</svg>
