<svg width="232" height="232" viewBox="0 0 232 232" fill="none" xmlns="http://www.w3.org/2000/svg">
<circle cx="116" cy="116" r="116" fill="#252742"/>
<path d="M62.9157 178.744L51 45H182L170.084 178.672L116.392 193.549" fill="#E44D26"/>
<path d="M116.5 182.175V55.9769H170.048L159.83 170.078" fill="#F16529"/>
<path d="M75.3368 72.3337H116.5V88.7268H93.3186L94.8352 105.517H116.5V121.874H79.8142L75.3368 72.3337ZM80.5364 130.107H97.0017L98.1571 143.214L116.5 148.125V165.24L82.8473 155.852" fill="#EBEBEB"/>
<path d="M157.519 72.3337H116.428V88.7268H156.002L157.519 72.3337ZM154.522 105.517H116.428V121.91H136.648L134.735 143.214L116.428 148.125V165.168L150.008 155.852" fill="white"/>
</svg>
