<svg width="232" height="232" viewBox="0 0 232 232" fill="none" xmlns="http://www.w3.org/2000/svg">
<circle cx="116" cy="116" r="116" fill="#252742"/>
<path d="M49.4416 92.6179H72.7588C79.6026 92.6754 84.5618 94.6486 87.6365 98.5342C90.7112 102.42 91.7257 107.727 90.6817 114.456C90.2762 117.531 89.3766 120.546 87.9845 123.504C86.6499 126.463 84.7949 129.13 82.4163 131.509C79.5156 134.524 76.413 136.439 73.1068 137.251C69.8006 138.064 66.3779 138.469 62.8403 138.469H52.3998L49.0936 155H37L49.4416 92.6179ZM59.6211 102.536L54.4009 128.638C54.7489 128.695 55.0969 128.725 55.4449 128.725C55.8504 128.725 56.2575 128.725 56.663 128.725C62.2313 128.782 66.872 128.232 70.5837 127.072C74.2953 125.854 76.7905 121.62 78.066 114.369C79.1101 108.279 78.066 104.769 74.9339 103.841C71.8592 102.914 68.0031 102.479 63.3623 102.536C62.6663 102.594 61.9998 102.623 61.3612 102.623C60.7817 102.623 60.1727 102.623 59.5341 102.623L59.6211 102.536Z" fill="#3342FF"/>
<path d="M104.458 76H116.464L113.071 92.6178H123.86C129.776 92.7344 134.184 93.9524 137.085 96.272C140.043 98.5916 140.913 103.001 139.695 109.497L133.865 138.469H121.685L127.253 110.802C127.832 107.901 127.658 105.842 126.731 104.624C125.803 103.406 123.802 102.797 120.728 102.797L111.07 102.71L103.936 138.469H91.9293L104.458 76Z" fill="#3342FF"/>
<path d="M152.588 92.6179H175.905C182.749 92.6754 187.708 94.6486 190.783 98.5342C193.857 102.42 194.872 107.727 193.828 114.456C193.422 117.531 192.523 120.546 191.131 123.504C189.796 126.463 187.941 129.13 185.562 131.509C182.662 134.524 179.559 136.439 176.253 137.251C172.947 138.064 169.524 138.469 165.986 138.469H155.546L152.24 155H140.146L152.588 92.6179ZM162.767 102.536L157.547 128.638C157.895 128.695 158.243 128.725 158.591 128.725C158.996 128.725 159.404 128.725 159.809 128.725C165.377 128.782 170.018 128.232 173.73 127.072C177.441 125.854 179.937 121.62 181.212 114.369C182.256 108.279 181.212 104.769 178.08 103.841C175.005 102.914 171.149 102.479 166.508 102.536C165.812 102.594 165.146 102.623 164.507 102.623C163.928 102.623 163.319 102.623 162.68 102.623L162.767 102.536Z" fill="#3342FF"/>
</svg>
